<svg width="22" height="33" viewBox="0 0 22 33" fill="none" xmlns="http://www.w3.org/2000/svg">
<path d="M8.54319 7.33009C8.60131 7.59183 8.7035 7.83451 8.82905 8.06337C5.37168 9.11733 2.84802 12.2886 2.84802 16.0963C2.84802 16.5837 2.88559 17.0525 2.97927 17.5212C3.99167 16.115 5.37912 14.9713 6.99162 14.2401C7.68534 12.5901 9.35391 11.4089 11.2851 11.4089C13.2164 11.4089 14.885 12.5901 15.5787 14.2401C15.8412 14.8213 15.9725 15.44 15.9725 16.0963C15.9725 18.7389 13.8268 20.7836 11.2851 20.7836C9.72889 20.7836 8.47275 22.0397 8.47275 23.596C8.47275 23.7648 8.4915 23.9147 8.52906 24.0647C9.39147 24.3646 10.3289 24.5335 11.2851 24.5335C16.0398 24.5335 19.7223 20.6698 19.7223 16.0963C19.7223 12.2886 17.1987 9.11733 13.7413 8.06337C13.8669 7.83451 13.969 7.59177 14.0272 7.33009C17.3102 6.57518 20.1342 4.45382 21.8408 1.50399C22.1008 1.05538 21.947 0.48228 21.4993 0.223227C21.0471 -0.0385759 20.4758 0.116106 20.2186 0.564714C18.8044 3.00819 16.4875 4.79306 13.7877 5.46503C13.3242 4.54669 12.3822 3.90928 11.2851 3.90928C10.1881 3.90928 9.2461 4.54669 8.78262 5.46503C6.0829 4.793 3.76599 3.00812 2.35179 0.564714C2.09361 0.116106 1.52051 -0.0385759 1.07103 0.223227C0.623357 0.482342 0.46955 1.05538 0.72954 1.50399C2.43616 4.45382 5.26012 6.57512 8.54319 7.33009Z" fill="white" fill-opacity="0.5"/>
<path d="M11.2853 18.9086C12.8416 18.9086 14.0977 17.6524 14.0977 16.0962C14.0977 15.9274 14.079 15.7775 14.0414 15.6274C13.179 15.3275 12.2415 15.1587 11.2853 15.1587C6.53069 15.1587 2.84814 19.0223 2.84814 23.5959C2.84814 28.2645 6.61675 32.0956 11.2853 32.0956C15.9539 32.0956 19.7225 28.2645 19.7225 23.5959C19.7225 23.1084 19.685 22.6397 19.5913 22.1709C18.5789 23.5771 17.1914 24.7208 15.5789 25.4521C14.8852 27.102 13.2166 28.2832 11.2854 28.2832C8.66099 28.2832 6.59807 26.1323 6.59807 23.5959C6.59801 20.9304 8.78236 18.9086 11.2853 18.9086Z" fill="white" fill-opacity="0.5"/>
</svg>
