<svg width="32" height="24" viewBox="0 0 32 24" fill="none" xmlns="http://www.w3.org/2000/svg">
<path d="M22.0928 1.24963C21.9333 0.359631 20.1988 0.228631 19.8853 1.06713C20.6248 0.947132 21.3828 1.01013 22.0928 1.24963Z" fill="white" fill-opacity="0.5"/>
<path d="M5.3097 20.4223C11.7557 21.3348 10.2782 24.4153 16.3022 23.8448C19.6557 23.4663 22.7362 21.8168 24.9102 19.2353C17.8367 18.8074 11.6412 15.5904 6.3077 16.3829C3.9062 18.0944 1.3962 19.6974 0.158203 20.7238C0.905703 20.4223 2.4917 20.0228 5.3097 20.4223Z" fill="white" fill-opacity="0.5"/>
<path d="M10.7518 15.3509C11.0603 12.8179 12.2978 6.02392 16.8618 2.73242C14.3858 3.30292 11.3738 4.52342 9.62283 7.04492C7.65483 9.83442 6.95333 13.6394 6.73633 15.1909C8.07683 15.1014 9.42283 15.1549 10.7518 15.3509Z" fill="white" fill-opacity="0.5"/>
<path d="M23.9468 18.01C25.2988 18.1525 26.4168 18.13 28.2138 18.278C29.9253 18.4205 30.5468 18.643 31.0663 18.3295C31.3728 18.108 31.5683 17.765 31.6023 17.388C31.7893 16.361 31.8678 15.317 31.8363 14.2735C31.8363 8.72304 28.9838 4.76954 23.2793 2.79004C26.6963 7.02304 24.7853 15.1175 23.9468 18.01Z" fill="white" fill-opacity="0.5"/>
<path d="M11.8813 15.4938C14.2203 15.9103 18.4303 17.2053 22.7998 17.8668C23.5413 15.3283 26.1143 5.17979 20.8203 2.19629C13.8608 3.59429 12.2238 12.6018 11.8813 15.4938Z" fill="white" fill-opacity="0.5"/>
</svg>
