<svg width="33" height="15" viewBox="0 0 33 15" fill="none" xmlns="http://www.w3.org/2000/svg">
<path d="M32.2087 4.46431C32.7027 4.21731 32.9029 3.61663 32.6559 3.1227C32.409 2.62877 31.8083 2.42865 31.3143 2.67546L30.88 2.89264C30.2222 2.19028 29.4075 1.61485 28.4609 1.22685C26.7508 0.525924 24.4944 0.373425 22.4253 0.81892C20.5221 1.22866 19.0553 2.07753 18.1788 3.2542C17.7199 3.13189 17.2459 3.06995 16.7617 3.06995C16.2775 3.06995 15.8035 3.13189 15.3446 3.2542C14.4681 2.07753 13.0013 1.22866 11.0981 0.81892C9.02898 0.373425 6.7727 0.525924 5.06253 1.22685C4.11592 1.61485 3.30124 2.19028 2.64344 2.89264L2.20913 2.67546C1.7152 2.4284 1.11446 2.62877 0.867523 3.1227C0.620526 3.61663 0.820711 4.21731 1.31471 4.46431L1.49202 4.55293C0.636026 6.27685 0.495403 8.34657 1.27939 10.2639C1.97976 11.9768 3.30455 13.3141 5.00985 14.0296C5.87152 14.3911 6.77814 14.5719 7.68512 14.5719C8.57324 14.5719 9.46173 14.3985 10.3085 14.0514C12.0184 13.3506 13.7336 11.8754 14.8965 10.1054C16.0326 8.37614 16.471 6.63922 16.1731 5.11943C16.366 5.08687 16.5624 5.06987 16.7618 5.06987C16.9613 5.06987 17.1577 5.08693 17.3506 5.11943C17.0526 6.63916 17.491 8.37607 18.6271 10.1054C19.79 11.8754 21.5053 13.3506 23.2152 14.0514C24.062 14.3985 24.9503 14.5719 25.8385 14.5719C26.7454 14.5719 27.6522 14.391 28.5138 14.0296C30.219 13.3141 31.5438 11.9768 32.2442 10.2639C33.0282 8.34657 32.8876 6.27685 32.0316 4.55293L32.2087 4.46431ZM7.16813 4.69243C6.12414 4.68612 5.26897 5.53142 5.26178 6.57672C5.25797 7.12896 4.80716 7.57358 4.25498 7.56977C4.12111 7.56883 3.99361 7.54171 3.87723 7.49321C3.51349 7.34152 3.25899 6.9814 3.26187 6.56297C3.27662 4.41581 5.03435 2.67958 7.18013 2.69252C7.73244 2.6959 8.17743 3.1462 8.17412 3.69851C8.17081 4.25075 7.72037 4.69575 7.16813 4.69243ZM24.1795 4.25981C23.5721 4.23044 22.7743 4.46144 22.1469 4.84837C21.5557 5.21299 21.1916 5.6648 21.1729 6.05692C21.153 6.47491 20.8792 6.82066 20.5078 6.95228C20.389 6.9944 20.2602 7.01459 20.1265 7.00822C19.5748 6.98197 19.1489 6.51347 19.1752 5.96179C19.2269 4.87856 19.9094 3.87863 21.0971 3.14608C22.0743 2.54352 23.2627 2.21309 24.2764 2.26215C24.828 2.2889 25.2535 2.75771 25.2268 3.30939C25.2 3.86101 24.7312 4.2865 24.1795 4.25981Z" fill="white" fill-opacity="0.5"/>
</svg>
