<svg width="32" height="33" viewBox="0 0 32 33" fill="none" xmlns="http://www.w3.org/2000/svg">
<path d="M11.6421 26.4488C11.5706 26.2476 11.4981 26.0488 11.4272 25.8448C10.4661 23.0939 9.55805 20.4962 6.63349 19.7373C5.70668 19.5011 4.73493 19.505 3.81006 19.7488L4.1015 20.5488C4.39006 21.3415 4.79549 22.0867 5.30437 22.7596L8.86037 27.4613L11.6421 26.4488Z" fill="white" fill-opacity="0.5"/>
<path d="M6.92034 18.6314C10.4358 19.5428 11.5358 22.6885 12.506 25.468C12.5752 25.6657 12.6466 25.8611 12.7163 26.0577L18.5318 23.9433L17.6358 21.4788C17.6095 21.4072 17.5978 21.331 17.6015 21.2548C17.6065 21.2038 17.6187 21.1538 17.6375 21.1062C17.6411 21.0836 17.6465 21.0612 17.6535 21.0393L21.3535 13.105C21.6479 12.4732 21.5222 11.7253 21.0375 11.2245C20.6535 10.8207 20.0943 10.6337 19.5447 10.7252C18.9951 10.8168 18.5268 11.1751 18.2946 11.6816L17.0803 14.2833C16.8921 14.7048 16.4622 14.9655 16.0014 14.9376C15.5423 14.9185 15.1403 14.6235 14.9843 14.1913L10.6215 2.20741C10.5141 1.91485 10.29 1.67997 10.0029 1.55891C9.71572 1.43778 9.39116 1.44128 9.10672 1.5686C8.56484 1.85028 8.32316 2.49572 8.54672 3.06403L10.781 9.2046L11.4096 10.928C11.4363 10.9998 11.4479 11.0762 11.4439 11.1526C11.4298 11.4238 11.2267 11.6477 10.9581 11.688C10.6895 11.7283 10.4296 11.574 10.3365 11.3188L6.69122 1.30741C6.58772 1.02978 6.37916 0.804033 6.11066 0.678846C5.84166 0.551471 5.53278 0.537721 5.25353 0.640533C4.67216 0.852971 4.37241 1.49578 4.58322 2.07766L8.22722 12.0891C8.27884 12.2317 8.27172 12.3888 8.20747 12.5261C8.14316 12.6634 8.02697 12.7695 7.88441 12.821C7.82209 12.8442 7.75609 12.856 7.68953 12.8559C7.68384 12.8559 7.67866 12.8559 7.67353 12.8559C7.65522 12.8559 7.63866 12.8502 7.62041 12.8479C7.57159 12.8423 7.52372 12.8302 7.47809 12.8119C7.45841 12.8037 7.43934 12.7942 7.42097 12.7833C7.37966 12.7605 7.34122 12.7327 7.30666 12.7005C7.29178 12.6862 7.27634 12.6742 7.26266 12.6588C7.21597 12.6069 7.17934 12.5468 7.15466 12.4817L4.25866 4.52278C4.04309 3.94597 3.40284 3.65072 2.82416 3.86141C2.24553 4.0721 1.94491 4.70985 2.15066 5.29022L3.50153 9.0011L5.62441 14.8348C5.68841 15.01 5.66284 15.2053 5.55597 15.3582C5.44909 15.5111 5.27434 15.6022 5.08784 15.6022C5.08153 15.6022 5.07584 15.6022 5.07016 15.6022C5.05472 15.6022 5.04103 15.5971 5.02559 15.5953C4.97334 15.5901 4.92209 15.5772 4.87359 15.557C4.85528 15.5494 4.83734 15.5408 4.81991 15.5313C4.77672 15.5079 4.73672 15.4789 4.70103 15.445C4.68641 15.4327 4.67253 15.4195 4.65934 15.4056C4.61272 15.3537 4.57591 15.2936 4.55078 15.2285L2.42778 9.39197C2.32022 9.09985 2.09628 8.86535 1.80941 8.74435C1.52253 8.62341 1.19834 8.62678 0.914031 8.75366C0.371656 9.03516 0.129406 9.68085 0.352906 10.2497L3.41866 18.6691C4.56247 18.3505 5.76991 18.3375 6.92034 18.6314Z" fill="white" fill-opacity="0.5"/>
<path d="M17.2601 11.1977C17.3113 11.099 17.3685 11.0036 17.4316 10.9121V3.93487C17.4316 3.30368 16.9199 2.79199 16.2887 2.79199C15.6562 2.79106 15.1423 3.30237 15.1401 3.93487V11.2766L16.0596 13.8034L17.2601 11.1977Z" fill="white" fill-opacity="0.5"/>
<path d="M20.8699 9.77565V1.7179C20.8699 1.08359 20.3557 0.569336 19.7213 0.569336C19.0869 0.569336 18.5728 1.08359 18.5728 1.7179V9.87277C19.2895 9.51377 20.1255 9.47846 20.8699 9.77565Z" fill="white" fill-opacity="0.5"/>
<path d="M24.8757 28.5581H22.2031C22.0363 29.04 21.6622 29.4217 21.1837 29.5981L20.8814 29.7078H23.1557C23.7882 29.7069 24.3021 30.2182 24.3043 30.8507V31.4221C24.3043 31.7377 24.0485 31.9936 23.7328 31.9936C23.4173 31.9936 23.1614 31.7378 23.1614 31.4221V30.8507H17.7408L13.0151 32.5696H24.8757C25.1913 32.5696 25.4472 32.3138 25.4472 31.9981V29.1295C25.4472 28.814 25.1913 28.5581 24.8757 28.5581Z" fill="white" fill-opacity="0.5"/>
<path d="M30.7489 15.6211V15.6228C30.0752 14.9565 28.9902 14.9582 28.3186 15.6268L26.2575 17.6931C25.9307 18.0216 25.4379 18.1203 25.0098 17.943C24.5817 17.7656 24.303 17.3473 24.3044 16.8839V3.93533C24.3037 3.61777 24.1709 3.31483 23.9378 3.09908C23.7047 2.88339 23.3924 2.77433 23.0758 2.79814C22.4568 2.87495 21.997 3.40889 22.0129 4.03245V10.6159C22.706 11.4486 22.8534 12.6077 22.3906 13.5873L18.79 21.3079L19.6432 23.6508C20.3617 23.6502 21.0043 24.0978 21.2529 24.7719L22.2083 27.3965C22.2083 27.4016 22.2083 27.4073 22.2123 27.4125H24.2757V24.6039V24.5999C24.2767 24.5311 24.2903 24.4632 24.3157 24.3993C24.3444 24.3238 24.3885 24.255 24.4454 24.1976V24.1942L30.7574 18.0553C31.4215 17.3784 31.4177 16.2933 30.7489 15.6211Z" fill="white" fill-opacity="0.5"/>
<path d="M21.1133 28.2274C21.1776 28.09 21.1846 27.9327 21.1328 27.79L20.1785 25.166C20.0962 24.94 19.8813 24.7897 19.6408 24.79C19.5744 24.7899 19.5084 24.8015 19.4459 24.8244L8.83793 28.6838L8.33105 28.8684L9.6768 32.5695L20.7899 28.5226C20.9327 28.471 21.049 28.3649 21.1133 28.2274ZM19.5568 28.3872H19.5562C19.4137 28.4388 19.2565 28.4317 19.1192 28.3674C18.9819 28.3031 18.8758 28.1869 18.8242 28.0444L18.6311 27.514L10.6882 30.4135C10.4953 30.488 10.2772 30.4524 10.1179 30.3206C9.95868 30.1887 9.88306 29.981 9.92031 29.7776C9.95749 29.5742 10.1017 29.4067 10.2974 29.3398L18.2511 26.4444C18.84 26.2335 19.4888 26.537 19.7042 27.1244L19.8973 27.6547C20.0056 27.951 19.8531 28.2789 19.5568 28.3872Z" fill="white" fill-opacity="0.5"/>
</svg>
