<svg width="33" height="15" viewBox="0 0 33 15" fill="none" xmlns="http://www.w3.org/2000/svg">
<path d="M31.6051 2.86259C29.337 1.63135 26.954 0.769748 24.323 0.857736C22.8162 0.90861 21.3569 1.27276 19.898 1.62006C19.0922 1.81155 18.2864 2.00648 17.4848 2.21673C17.2403 2.28106 16.9998 2.30895 16.7617 2.31824C16.5237 2.30937 16.2832 2.28106 16.0389 2.21673C15.2371 2.00648 14.4315 1.81155 13.6255 1.62006C12.1663 1.27306 10.7073 0.90861 9.20044 0.857736C6.56923 0.769748 4.18629 1.63159 1.91832 2.86259C0.886055 3.42293 0.6172 3.92014 0.828904 4.83298C1.08068 5.91847 1.4161 6.99256 1.8972 7.99369C2.32435 8.88317 2.79242 9.75769 3.31419 10.6072C4.15926 11.9822 5.0727 13.2235 6.66784 13.7964C7.63602 14.1439 8.62393 14.3377 9.64859 14.276C10.2194 14.2414 10.7365 13.9971 11.2461 13.7445C11.7523 13.4933 12.2694 13.2617 12.7246 12.9224C13.1765 12.5852 13.657 12.2712 14.0493 11.8718C14.0493 11.8718 15.6722 10.2923 16.7617 10.0495C17.8519 10.2926 19.4742 11.8718 19.4742 11.8718C19.8665 12.2712 20.3471 12.5852 20.7994 12.9224C21.2542 13.2617 21.7719 13.493 22.2777 13.7445C22.787 13.9971 23.3041 14.2413 23.8753 14.276C24.9 14.3376 25.8878 14.1439 26.8561 13.7964C28.4511 13.2238 29.365 11.9822 30.2094 10.6072C30.7313 9.75799 31.1991 8.88323 31.6264 7.99369C32.1072 6.99256 32.4426 5.91878 32.6947 4.83298C32.9061 3.92014 32.6372 3.42293 31.6051 2.86259ZM8.78796 9.00544C6.7402 8.30889 5.67794 5.98594 5.67794 5.98594C5.67794 5.98594 7.93595 4.79285 9.98371 5.48909C12.0315 6.18534 13.0933 8.50829 13.0933 8.50829C13.0933 8.50829 10.8354 9.70168 8.78796 9.00544ZM24.7356 9.00544C22.688 9.70168 20.4297 8.50835 20.4297 8.50835C20.4297 8.50835 21.4921 6.1854 23.54 5.48915C25.5873 4.79291 27.8454 5.986 27.8454 5.986C27.8454 5.986 26.7836 8.30889 24.7356 9.00544Z" fill="white" fill-opacity="0.5"/>
</svg>
