<svg width="16" height="31" viewBox="0 0 16 31" fill="none" xmlns="http://www.w3.org/2000/svg">
<path d="M3.93105 3.49541V2.63916H2.0248L1.7498 5.15166C1.74355 5.19541 1.74355 5.23291 1.7373 5.27666H2.1498C3.13105 5.27666 3.93105 4.48291 3.93105 3.49541Z" fill="white" fill-opacity="0.5"/>
<path d="M1.15625 28.6953H3.43125V30.0766H1.15625V28.6953Z" fill="white" fill-opacity="0.5"/>
<path d="M9.34365 2.01397H14.1562V0.563965H2.05615V2.01397H8.04365H9.34365Z" fill="white" fill-opacity="0.5"/>
<path d="M12.2437 3.49541C12.2437 4.47666 13.0437 5.27666 14.0249 5.27666H14.4437L14.1874 2.63916H12.2437V3.49541Z" fill="white" fill-opacity="0.5"/>
<path d="M9.03144 5.97666V2.63916H8.35645V6.90791C8.7627 6.77666 9.03144 6.40166 9.03144 5.97666Z" fill="white" fill-opacity="0.5"/>
<path d="M14.5063 5.99541L14.5 5.90166H14.0187C12.6937 5.90166 11.6187 4.82666 11.6125 3.49541V2.63916H9.65V5.97041C9.65 6.85791 8.93125 7.58291 8.0375 7.58291C7.8625 7.58291 7.725 7.44541 7.725 7.27041V2.63916H4.55V3.49541C4.55 4.82041 3.475 5.89541 2.14375 5.90166H1.66875C0.9125 13.0954 0.525 20.3267 0.5 27.5579V27.5767C0.5 27.8454 0.71875 28.0704 0.9875 28.0704H3.6625C3.9125 28.0704 4.11875 27.8892 4.15 27.6392L5.2125 19.2767C5.3875 17.9079 5.65 16.5517 6.00625 15.2142V15.2079L7.7125 9.40166C7.75 9.27041 7.875 9.17666 8.0125 9.17666C8.15 9.17666 8.275 9.27041 8.3125 9.40166L10 15.4079V15.4142C10.3125 16.6329 10.5437 17.8767 10.7062 19.1204L11.7875 27.6329C11.8188 27.8767 12.025 28.0579 12.275 28.0642H15C15.2688 28.0642 15.4875 27.8454 15.4937 27.5767C15.5312 20.3767 15.2 13.1704 14.5063 5.99541ZM10.6812 15.5079C10.6625 15.4267 10.6437 15.3517 10.6187 15.2704C10.575 15.1017 10.675 14.9329 10.8438 14.8892C11.0125 14.8454 11.1813 14.9454 11.225 15.1142V15.1204C11.2438 15.2017 11.2688 15.2829 11.2875 15.3642C11.3313 15.5329 11.225 15.7017 11.0562 15.7454C10.8875 15.7767 10.7188 15.6704 10.6812 15.5079ZM11.6875 19.3204C11.5188 19.3392 11.3625 19.2204 11.3375 19.0517C11.2312 18.2142 11.0875 17.3704 10.9125 16.5392C10.875 16.3704 10.9812 16.2017 11.15 16.1642C11.3187 16.1267 11.4875 16.2329 11.525 16.4017V16.4079C11.7062 17.2579 11.85 18.1204 11.9562 18.9704C11.9812 19.1454 11.8625 19.3017 11.6875 19.3204Z" fill="white" fill-opacity="0.5"/>
<path d="M12.5498 28.6953H14.8248V30.0766H12.5498V28.6953Z" fill="white" fill-opacity="0.5"/>
</svg>
