<svg width="33" height="33" viewBox="0 0 33 33" fill="none" xmlns="http://www.w3.org/2000/svg">
<path d="M7.67627 32.1613H16.3564H25.0365V31.0039H7.67627V32.1613Z" fill="white" fill-opacity="0.5"/>
<path d="M25.7882 2.93315C25.499 2.71049 25.1701 2.54479 24.819 2.44491L21.4058 1.46951C21.3111 1.44242 21.2249 1.39166 21.1554 1.32204L20.3128 0.479492C19.0939 1.12837 17.7372 1.47546 16.3565 1.4916C14.9758 1.47546 13.619 1.12837 12.4001 0.479492L11.5575 1.32204C11.488 1.39173 11.4018 1.44249 11.3072 1.46958L7.89395 2.44491C7.54287 2.54479 7.214 2.71049 6.92475 2.93315L0.356445 7.98586L4.33539 13.9552L5.44149 13.0701L2.56548 8.7567C2.392 8.49093 2.46497 8.13498 2.72909 7.9589C2.99321 7.78282 3.3498 7.85237 3.52841 8.11472L6.34854 12.3444L6.73601 12.0344C6.90975 11.8954 7.1478 11.8683 7.34837 11.9647C7.54894 12.0611 7.67641 12.264 7.67641 12.4865V29.8467H25.0367V12.4864C25.0367 12.2639 25.1641 12.0611 25.3647 11.9647C25.5652 11.8683 25.8033 11.8954 25.9771 12.0343L26.3645 12.3443L29.1846 8.11466C29.3626 7.85048 29.7205 7.77978 29.9856 7.95649C30.2506 8.1332 30.323 8.49081 30.1476 8.75663L27.2716 13.0701L28.3777 13.9551L32.3566 7.9858L25.7882 2.93315Z" fill="white" fill-opacity="0.5"/>
</svg>
