<svg width="33" height="20" viewBox="0 0 33 20" fill="none" xmlns="http://www.w3.org/2000/svg">
<path d="M22.5348 16.9275C20.1245 16.9275 17.7435 16.5411 15.4577 15.7791C13.7467 15.2086 11.9642 14.9193 10.1598 14.9193H2.2893C1.55182 14.9193 0.880082 14.6335 0.377968 14.1675C0.358656 14.3148 0.347656 14.4647 0.347656 14.6172V18.1316C0.347656 18.6494 0.767397 19.0691 1.28514 19.0691H8.90259C10.0686 19.0691 11.1649 18.615 11.9895 17.7904C11.9905 17.7893 11.9916 17.7883 11.9926 17.7873C12.3368 17.4452 12.8496 17.3406 13.3001 17.5208L15.2081 18.2842C16.5113 18.805 17.8831 19.0691 19.2854 19.0691H25.3846C27.9321 19.0691 30.1639 17.6937 31.3776 15.6466C29.9281 16.4821 28.2789 16.9275 26.561 16.9275H22.5348V16.9275Z" fill="white" fill-opacity="0.5"/>
<path d="M16.0518 14.0002C17.0153 14.3214 17.9975 14.5688 18.9921 14.7434L17.5789 13.9811C15.8336 13.0571 13.8818 12.0238 12.0794 11.0699C11.0643 10.5324 9.82291 10.5666 8.83949 11.1588C8.13001 11.5857 7.61433 12.2668 7.38184 13.0442H10.1608C12.1672 13.0442 14.1492 13.3658 16.0518 14.0002Z" fill="white" fill-opacity="0.5"/>
<path d="M28.3978 8.15698C26.6859 8.15698 25.0266 7.67442 23.5834 6.76155L22.2073 9.51371C21.9757 9.97683 21.4126 10.1645 20.9495 9.93296C20.4864 9.7014 20.2987 9.13828 20.5302 8.67516L22.0093 5.717C21.5442 5.40694 21.0597 5.08401 20.5691 4.75689L19.1948 7.50536C18.9633 7.96848 18.4002 8.15616 17.9371 7.9246C17.4739 7.69304 17.2863 7.12992 17.5178 6.66681L18.9968 3.70871C18.5041 3.38022 18.0197 3.05722 17.5566 2.74854L16.1824 5.49701C15.9508 5.96013 15.3877 6.14781 14.9246 5.91625C14.4615 5.68469 14.2738 5.12157 14.5054 4.65845L15.9844 1.7003C14.7196 0.857057 13.8556 0.281001 13.8556 0.281001C13.4839 0.0331283 12.9887 0.0821278 12.6727 0.398124L10.8386 2.23223C10.0007 3.07022 8.63738 3.0701 7.79946 2.23223C7.54215 1.94273 6.34837 0.942994 4.67203 1.40724C3.5598 1.71542 2.69526 2.60235 2.41577 3.72165L1.38054 7.86267C1.36191 7.93704 1.35254 8.01342 1.35254 8.0901V12.1067C1.35254 12.6245 1.77228 13.0442 2.29002 13.0442H5.45651C5.72482 11.6058 6.59949 10.3182 7.87221 9.5524C9.4153 8.62297 11.3637 8.56935 12.9563 9.41271C14.7586 10.3666 16.7105 11.4001 18.4559 12.3241L21.1532 13.7522C22.7606 14.6028 24.5712 15.0525 26.3889 15.0525H26.5617C28.6437 15.0525 30.601 14.2418 32.0731 12.7696C32.2489 12.5938 32.3477 12.3543 32.3477 12.1057C32.3477 9.92846 30.5763 8.15698 28.3978 8.15698Z" fill="white" fill-opacity="0.5"/>
</svg>
