<svg width="25" height="25" viewBox="0 0 25 25" fill="none" xmlns="http://www.w3.org/2000/svg">
    <g clip-path="url(#clip0_2_5266)">
    <path d="M20.0103 3.46387H15.8853V2.71387C15.8853 1.47121 14.8779 0.463867 13.6353 0.463867H10.6353C9.3926 0.463867 8.38525 1.47121 8.38525 2.71387V3.46387H4.26025C3.22474 3.46387 2.38525 4.30335 2.38525 5.33887V6.83887C2.38525 7.2531 2.72102 7.58887 3.13525 7.58887H21.1353C21.5495 7.58887 21.8853 7.2531 21.8853 6.83887V5.33887C21.8853 4.30335 21.0458 3.46387 20.0103 3.46387ZM9.88525 2.71387C9.88525 2.30043 10.2218 1.96387 10.6353 1.96387H13.6353C14.0487 1.96387 14.3853 2.30043 14.3853 2.71387V3.46387H9.88525V2.71387Z" fill="white" fill-opacity="0.5"/>
    <path d="M3.80858 9.08887C3.67476 9.08887 3.56812 9.20071 3.57449 9.3344L4.19324 22.3207C4.25043 23.5226 5.23761 24.4639 6.44043 24.4639H17.8301C19.0329 24.4639 20.0201 23.5226 20.0773 22.3207L20.6961 9.3344C20.7024 9.20071 20.5958 9.08887 20.462 9.08887H3.80858ZM15.1353 10.9639C15.1353 10.5495 15.4709 10.2139 15.8853 10.2139C16.2996 10.2139 16.6353 10.5495 16.6353 10.9639V20.7139C16.6353 21.1282 16.2996 21.4639 15.8853 21.4639C15.4709 21.4639 15.1353 21.1282 15.1353 20.7139V10.9639ZM11.3853 10.9639C11.3853 10.5495 11.7209 10.2139 12.1353 10.2139C12.5496 10.2139 12.8853 10.5495 12.8853 10.9639V20.7139C12.8853 21.1282 12.5496 21.4639 12.1353 21.4639C11.7209 21.4639 11.3853 21.1282 11.3853 20.7139V10.9639ZM7.63527 10.9639C7.63527 10.5495 7.9709 10.2139 8.38527 10.2139C8.79965 10.2139 9.13527 10.5495 9.13527 10.9639V20.7139C9.13527 21.1282 8.79965 21.4639 8.38527 21.4639C7.9709 21.4639 7.63527 21.1282 7.63527 20.7139V10.9639Z" fill="white" fill-opacity="0.5"/>
    </g>
    <defs>
    <clipPath id="clip0_2_5266">
    <rect width="24" height="24" fill="white" transform="translate(0.135254 0.463867)"/>
    </clipPath>
    </defs>
</svg>