<svg width="18" height="33" viewBox="0 0 18 33" fill="none" xmlns="http://www.w3.org/2000/svg">
<path d="M7.34757 8.15786C8.89477 8.15786 10.347 8.57196 11.5994 9.29508V1.62272C11.5994 1.04098 11.1278 0.569336 10.5461 0.569336H4.14908C3.56735 0.569336 3.0957 1.04092 3.0957 1.62272V9.29502C4.3482 8.57196 5.80043 8.15786 7.34757 8.15786ZM7.34757 3.40109C7.86857 3.40109 8.29092 3.82344 8.29092 4.34445C8.29092 4.86545 7.86857 5.2878 7.34757 5.2878C6.82656 5.2878 6.40422 4.86545 6.40422 4.34445C6.40422 3.82344 6.82656 3.40109 7.34757 3.40109Z" fill="white" fill-opacity="0.5"/>
<path d="M14.0039 16.6885C14.0039 13.0182 11.0179 10.0322 7.34767 10.0322C3.67741 10.0322 0.691406 13.0182 0.691406 16.6885C0.691406 20.3588 3.67735 23.3448 7.34767 23.3448C11.018 23.3448 14.0039 20.3588 14.0039 16.6885ZM5.21705 20.0374C4.99657 20.0374 4.77521 19.96 4.59696 19.8026C4.2091 19.46 4.17236 18.8677 4.51499 18.4798L6.40913 16.3354L6.39551 12.7431C6.39357 12.2255 6.81155 11.8044 7.32912 11.8024H7.33281C7.84875 11.8024 8.26791 12.2196 8.26991 12.736L8.28491 16.6849C8.28578 16.9147 8.20225 17.1367 8.05011 17.3089L5.91981 19.7206C5.73456 19.9304 5.47646 20.0374 5.21705 20.0374Z" fill="white" fill-opacity="0.5"/>
<path d="M16.4915 15.751H15.8267C15.8605 16.0589 15.8784 16.3715 15.8784 16.6882C15.8784 17.0049 15.8605 17.3175 15.8267 17.6253H16.4915C17.009 17.6253 17.4286 17.2057 17.4286 16.6882C17.4286 16.1706 17.0091 15.751 16.4915 15.751Z" fill="white" fill-opacity="0.5"/>
<path d="M7.3476 25.2193C5.80039 25.2193 4.34814 24.8052 3.0957 24.082V31.5162C3.0957 32.0979 3.56729 32.5696 4.14909 32.5696H10.5462C11.1279 32.5696 11.5996 32.098 11.5996 31.5162V24.082C10.3471 24.8052 8.89481 25.2193 7.3476 25.2193Z" fill="white" fill-opacity="0.5"/>
</svg>
